<svg width="300" height="300" version="1.1" xmlns="http://www.w3.org/2000/svg" desc="Created with imagetracer.js version 1.2.6" ><path fill="rgb(113,113,113)" stroke="rgb(113,113,113)" stroke-width="1" opacity="0.21568627450980393" d="M 42.5 99 L 46 99.5 L 42.5 100 L 42.5 99 Z " /><path fill="rgb(113,113,113)" stroke="rgb(113,113,113)" stroke-width="1" opacity="0.21568627450980393" d="M 56.5 99 L 59 99.5 L 56.5 100 L 56.5 99 Z " /><path fill="rgb(113,113,113)" stroke="rgb(113,113,113)" stroke-width="1" opacity="0.21568627450980393" d="M 76.5 105 L 77.5 107 L 76.5 105 Z " /><path fill="rgb(113,113,113)" stroke="rgb(113,113,113)" stroke-width="1" opacity="0.21568627450980393" d="M 43.5 108 L 46 108.5 L 43.5 109 L 43.5 108 Z " /><path fill="rgb(113,113,113)" stroke="rgb(113,113,113)" stroke-width="1" opacity="0.21568627450980393" d="M 56.5 108 L 59 108.5 L 56.5 109 L 56.5 108 Z " /><path fill="rgb(113,113,113)" stroke="rgb(113,113,113)" stroke-width="1" opacity="0.21568627450980393" d="M 19.5 109 L 18.5 111 L 19.5 109 Z " /><path fill="rgb(113,113,113)" stroke="rgb(113,113,113)" stroke-width="1" opacity="0.21568627450980393" d="M 73.5 114 L 74.5 116 L 73.5 114 Z " /><path fill="rgb(113,113,113)" stroke="rgb(113,113,113)" stroke-width="1" opacity="0.21568627450980393" d="M 25.5 116 L 23.5 119 L 25.5 116 Z " /><path fill="rgb(113,113,113)" stroke="rgb(113,113,113)" stroke-width="1" opacity="0.21568627450980393" d="M 11.5 117 L 10.5 119 L 11.5 117 Z " /><path fill="rgb(113,113,113)" stroke="rgb(113,113,113)" stroke-width="1" opacity="0.21568627450980393" d="M 77.5 117 L 79.5 120 L 77.5 117 Z " /><path fill="rgb(113,113,113)" stroke="rgb(113,113,113)" stroke-width="1" opacity="0.21568627450980393" d="M 34.5 120 L 60 120.5 L 34.5 121 L 34.5 120 Z " /><path fill="rgb(113,113,113)" stroke="rgb(113,113,113)" stroke-width="1" opacity="0.21568627450980393" d="M 19.5 122 L 17.5 125 L 19.5 122 Z " /><path fill="rgb(113,113,113)" stroke="rgb(113,113,113)" stroke-width="1" opacity="0.21568627450980393" d="M 66.5 123 L 67.5 125 L 66.5 123 Z " /><path fill="rgb(113,113,113)" stroke="rgb(113,113,113)" stroke-width="1" opacity="0.21568627450980393" d="M 84.5 128 L 85 173.5 L 84 173.5 L 84.5 128 Z " /><path fill="rgb(113,113,113)" stroke="rgb(113,113,113)" stroke-width="1" opacity="0.21568627450980393" d="M 213.5 128 L 214 173.5 L 213 173.5 L 213.5 128 Z " /><path fill="rgb(113,113,113)" stroke="rgb(113,113,113)" stroke-width="1" opacity="0.21568627450980393" d="M 221.5 128 L 222 173.5 L 221 173.5 L 221.5 128 Z " /><path fill="rgb(113,113,113)" stroke="rgb(113,113,113)" stroke-width="1" opacity="0.21568627450980393" d="M 255.5 128 L 256 173.5 L 255 173.5 L 255.5 128 Z " /><path fill="rgb(113,113,113)" stroke="rgb(113,113,113)" stroke-width="1" opacity="0.21568627450980393" d="M 14.5 129 L 13.5 131 L 14.5 129 Z " /><path fill="rgb(113,113,113)" stroke="rgb(113,113,113)" stroke-width="1" opacity="0.21568627450980393" d="M 25.5 129 L 26 137 L 34 137.5 L 25 138 L 25.5 129 Z " /><path fill="rgb(113,113,113)" stroke="rgb(113,113,113)" stroke-width="1" opacity="0.21568627450980393" d="M 42.5 129 L 43 137 L 64.5 137 L 65.5 136 L 66 138 L 43.5 138 L 42 136.5 L 42.5 129 Z " /><path fill="rgb(113,113,113)" stroke="rgb(113,113,113)" stroke-width="1" opacity="0.21568627450980393" d="M 133.5 129 L 134.5 131 L 133.5 129 Z " /><path fill="rgb(113,113,113)" stroke="rgb(113,113,113)" stroke-width="1" opacity="0.21568627450980393" d="M 178.5 129 L 179 133.5 L 178 133.5 L 178.5 129 Z " /><path fill="rgb(113,113,113)" stroke="rgb(113,113,113)" stroke-width="1" opacity="0.21568627450980393" d="M 247.5 129 L 248.5 131 L 247.5 129 Z " /><path fill="rgb(113,113,113)" stroke="rgb(113,113,113)" stroke-width="1" opacity="0.21568627450980393" d="M 61.5 131 L 64.5 135 L 61.5 131 Z " /><path fill="rgb(113,113,113)" stroke="rgb(113,113,113)" stroke-width="1" opacity="0.21568627450980393" d="M 170.5 131 L 171 134.5 L 170 134.5 L 170.5 131 Z " /><path fill="rgb(113,113,113)" stroke="rgb(113,113,113)" stroke-width="1" opacity="0.21568627450980393" d="M 141.5 134 L 142 168.5 L 141 168.5 L 141.5 134 Z " /><path fill="rgb(113,113,113)" stroke="rgb(113,113,113)" stroke-width="1" opacity="0.21568627450980393" d="M 199.5 134 L 200 138.5 L 199 138.5 L 199.5 134 Z " /><path fill="rgb(113,113,113)" stroke="rgb(113,113,113)" stroke-width="1" opacity="0.21568627450980393" d="M 136.5 135 L 137 142.5 L 136 142.5 L 136.5 135 Z " /><path fill="rgb(113,113,113)" stroke="rgb(113,113,113)" stroke-width="1" opacity="0.21568627450980393" d="M 207.5 135 L 208 138.5 L 207 138.5 L 207.5 135 Z " /><path fill="rgb(113,113,113)" stroke="rgb(113,113,113)" stroke-width="1" opacity="0.21568627450980393" d="M 250.5 135 L 251 142.5 L 250 142.5 L 250.5 135 Z " /><path fill="rgb(113,113,113)" stroke="rgb(113,113,113)" stroke-width="1" opacity="0.21568627450980393" d="M 92.5 136 L 93 146.5 L 92 146.5 L 92.5 136 Z " /><path fill="rgb(113,113,113)" stroke="rgb(113,113,113)" stroke-width="1" opacity="0.21568627450980393" d="M 122.5 136 L 121.5 138 L 122.5 136 Z " /><path fill="rgb(113,113,113)" stroke="rgb(113,113,113)" stroke-width="1" opacity="0.21568627450980393" d="M 236.5 136 L 235.5 138 L 236.5 136 Z " /><path fill="rgb(113,113,113)" stroke="rgb(113,113,113)" stroke-width="1" opacity="0.21568627450980393" d="M 263.5 136 L 264 146.5 L 263 146.5 L 263.5 136 Z " /><path fill="rgb(113,113,113)" stroke="rgb(113,113,113)" stroke-width="1" opacity="0.21568627450980393" d="M 76.5 137 L 81 137.5 L 76.5 138 L 76.5 137 Z " /><path fill="rgb(113,113,113)" stroke="rgb(113,113,113)" stroke-width="1" opacity="0.21568627450980393" d="M 149.5 137 L 150 164.5 L 149 164.5 L 149.5 137 Z " /><path fill="rgb(113,113,113)" stroke="rgb(113,113,113)" stroke-width="1" opacity="0.21568627450980393" d="M 0.5 139 L 1 141.5 L 0 141.5 L 0.5 139 Z " /><path fill="rgb(113,113,113)" stroke="rgb(113,113,113)" stroke-width="1" opacity="0.21568627450980393" d="M 76.5 139 L 77 143.5 L 76 143.5 L 76.5 139 Z " /><path fill="rgb(113,113,113)" stroke="rgb(113,113,113)" stroke-width="1" opacity="0.21568627450980393" d="M 171.5 141 L 172 144.5 L 171 144.5 L 171.5 141 Z " /><path fill="rgb(113,113,113)" stroke="rgb(113,113,113)" stroke-width="1" opacity="0.21568627450980393" d="M 179.5 141 L 180 145.5 L 179 145.5 L 179.5 141 Z " /><path fill="rgb(113,113,113)" stroke="rgb(113,113,113)" stroke-width="1" opacity="0.21568627450980393" d="M 206.5 144 L 207 147.5 L 206 147.5 L 206.5 144 Z " /><path fill="rgb(113,113,113)" stroke="rgb(113,113,113)" stroke-width="1" opacity="0.21568627450980393" d="M 198.5 145 L 199 150.5 L 198 150.5 L 198.5 145 Z " /><path fill="rgb(113,113,113)" stroke="rgb(113,113,113)" stroke-width="1" opacity="0.21568627450980393" d="M 25.5 146 L 26 154 L 34 154.5 L 25 155 L 25.5 146 Z " /><path fill="rgb(113,113,113)" stroke="rgb(113,113,113)" stroke-width="1" opacity="0.21568627450980393" d="M 42.5 146 L 43 154 L 55 154.5 L 43.5 155 L 42 153.5 L 42.5 146 Z " /><path fill="rgb(113,113,113)" stroke="rgb(113,113,113)" stroke-width="1" opacity="0.21568627450980393" d="M 8.5 147 L 9 150.5 L 8 150.5 L 8.5 147 Z " /><path fill="rgb(113,113,113)" stroke="rgb(113,113,113)" stroke-width="1" opacity="0.21568627450980393" d="M 196.5 147 L 197 149.5 L 196 149.5 L 196.5 147 Z " /><path fill="rgb(113,113,113)" stroke="rgb(113,113,113)" stroke-width="1" opacity="0.21568627450980393" d="M 104.5 148 L 105 154.5 L 104 154.5 L 104.5 148 Z " /><path fill="rgb(113,113,113)" stroke="rgb(113,113,113)" stroke-width="1" opacity="0.21568627450980393" d="M 275.5 148 L 276 154.5 L 275 154.5 L 275.5 148 Z " /><path fill="rgb(113,113,113)" stroke="rgb(113,113,113)" stroke-width="1" opacity="0.21568627450980393" d="M 189.5 149 L 190 150.5 L 188 151.5 L 189.5 149 Z " /><path fill="rgb(113,113,113)" stroke="rgb(113,113,113)" stroke-width="1" opacity="0.21568627450980393" d="M 172.5 150 L 173 153.5 L 172 153.5 L 172.5 150 Z " /><path fill="rgb(113,113,113)" stroke="rgb(113,113,113)" stroke-width="1" opacity="0.21568627450980393" d="M 136.5 152 L 137 166.5 L 136 166.5 L 136.5 152 Z " /><path fill="rgb(113,113,113)" stroke="rgb(113,113,113)" stroke-width="1" opacity="0.21568627450980393" d="M 250.5 152 L 251 166.5 L 250 166.5 L 250.5 152 Z " /><path fill="rgb(113,113,113)" stroke="rgb(113,113,113)" stroke-width="1" opacity="0.21568627450980393" d="M 205.5 153 L 206 156.5 L 205 156.5 L 205.5 153 Z " /><path fill="rgb(113,113,113)" stroke="rgb(113,113,113)" stroke-width="1" opacity="0.21568627450980393" d="M 72.5 154 L 81 154.5 L 72.5 155 L 68.5 159 L 72.5 154 Z " /><path fill="rgb(113,113,113)" stroke="rgb(113,113,113)" stroke-width="1" opacity="0.21568627450980393" d="M 92.5 155 L 93 165.5 L 92 165.5 L 92.5 155 Z " /><path fill="rgb(113,113,113)" stroke="rgb(113,113,113)" stroke-width="1" opacity="0.21568627450980393" d="M 263.5 155 L 264 165.5 L 263 165.5 L 263.5 155 Z " /><path fill="rgb(113,113,113)" stroke="rgb(113,113,113)" stroke-width="1" opacity="0.21568627450980393" d="M 114.5 158 L 121 158.5 L 114.5 159 L 114.5 158 Z " /><path fill="rgb(113,113,113)" stroke="rgb(113,113,113)" stroke-width="1" opacity="0.21568627450980393" d="M 228.5 158 L 235 158.5 L 228.5 159 L 228.5 158 Z " /><path fill="rgb(113,113,113)" stroke="rgb(113,113,113)" stroke-width="1" opacity="0.21568627450980393" d="M 173.5 159 L 174 162.5 L 173 162.5 L 173.5 159 Z " /><path fill="rgb(113,113,113)" stroke="rgb(113,113,113)" stroke-width="1" opacity="0.21568627450980393" d="M 204.5 162 L 205 165.5 L 204 165.5 L 204.5 162 Z " /><path fill="rgb(113,113,113)" stroke="rgb(113,113,113)" stroke-width="1" opacity="0.21568627450980393" d="M 42.5 163 L 43 179.5 L 42 179.5 L 42.5 163 Z " /><path fill="rgb(113,113,113)" stroke="rgb(113,113,113)" stroke-width="1" opacity="0.21568627450980393" d="M 151.5 166 L 155 166.5 L 151.5 167 L 151.5 166 Z " /><path fill="rgb(113,113,113)" stroke="rgb(113,113,113)" stroke-width="1" opacity="0.21568627450980393" d="M 174.5 168 L 175 171.5 L 174 171.5 L 174.5 168 Z " /><path fill="rgb(113,113,113)" stroke="rgb(113,113,113)" stroke-width="1" opacity="0.21568627450980393" d="M 203.5 170 L 204 173.5 L 203 173.5 L 203.5 170 Z " /><path fill="rgb(113,113,113)" stroke="rgb(113,113,113)" stroke-width="1" opacity="0.21568627450980393" d="M 114.5 171 L 115.5 173 L 114.5 171 Z " /><path fill="rgb(113,113,113)" stroke="rgb(113,113,113)" stroke-width="1" opacity="0.21568627450980393" d="M 163.5 171 L 162.5 173 L 163.5 171 Z " /><path fill="rgb(113,113,113)" stroke="rgb(113,113,113)" stroke-width="1" opacity="0.21568627450980393" d="M 228.5 171 L 229.5 173 L 228.5 171 Z " /><path fill="rgb(113,113,113)" stroke="rgb(113,113,113)" stroke-width="1" opacity="0.21568627450980393" d="M 5.5 174 L 6.5 176 L 5.5 174 Z " /><path fill="rgb(113,113,113)" stroke="rgb(113,113,113)" stroke-width="1" opacity="0.21568627450980393" d="M 19.5 178 L 22.5 182 L 19.5 178 Z " /><path fill="rgb(113,113,113)" stroke="rgb(113,113,113)" stroke-width="1" opacity="0.21568627450980393" d="M 8.5 179 L 9.5 181 L 8.5 179 Z " /><path fill="rgb(113,113,113)" stroke="rgb(113,113,113)" stroke-width="1" opacity="0.21568627450980393" d="M 56.5 179 L 62 179.5 L 56.5 180 L 56.5 179 Z " /><path fill="rgb(113,113,113)" stroke="rgb(113,113,113)" stroke-width="1" opacity="0.21568627450980393" d="M 48.5 180 L 52 180.5 L 48.5 181 L 48.5 180 Z " /><path fill="rgb(113,113,113)" stroke="rgb(113,113,113)" stroke-width="1" opacity="0.21568627450980393" d="M 282.5 181 L 283 183.5 L 282 183.5 L 282.5 181 Z " /><path fill="rgb(113,113,113)" stroke="rgb(113,113,113)" stroke-width="1" opacity="0.21568627450980393" d="M 26.5 184 L 29 185.5 L 27.5 186 L 26.5 184 Z " /><path fill="rgb(113,113,113)" stroke="rgb(113,113,113)" stroke-width="1" opacity="0.21568627450980393" d="M 13.5 185 L 14.5 187 L 13.5 185 Z " /><path fill="rgb(113,113,113)" stroke="rgb(113,113,113)" stroke-width="1" opacity="0.21568627450980393" d="M 20.5 191 L 21.5 193 L 20.5 191 Z " /><path fill="rgb(113,113,113)" stroke="rgb(113,113,113)" stroke-width="1" opacity="0.21568627450980393" d="M 255.5 191 L 259 191.5 L 255.5 192 L 255.5 191 Z " /><path fill="rgb(113,113,113)" stroke="rgb(113,113,113)" stroke-width="1" opacity="0.21568627450980393" d="M 244.5 192 L 250 192.5 L 244.5 193 L 244.5 192 Z " /><path fill="rgb(113,113,113)" stroke="rgb(113,113,113)" stroke-width="1" opacity="0.21568627450980393" d="M 46.5 201 L 56 201.5 L 46.5 202 L 46.5 201 Z " /><path fill="rgb(0,0,0)" stroke="rgb(0,0,0)" stroke-width="1" opacity="0" d="M 0 0 L 300 0 L 300 300 L 0 300 L 0 160.5 L 1 160.5 Q 3.6 177.9 14.5 187 L 17.5 189 Q 29.8 202.2 55.5 202 L 68.5 199 L 79.5 193 L 249.5 193 L 250.5 192 L 258.5 192 L 268.5 190 L 282 186 L 283 181.5 L 280.5 179 L 56.5 179 L 27.5 185 L 17 175.5 Q 7.7 164.8 9 143.5 Q 12.3 127.8 22.5 119 L 37.5 110 L 46.5 108 L 55.5 108 Q 72.1 110.9 81.5 121 L 82 109.5 L 76.5 105 L 63.5 100 L 58.5 99 L 42.5 99 Q 20.9 103.4 10 118.5 Q 3.1 126.6 0.5 139 L 0 0 Z M 34 120 L 34 129 L 25 129 L 25 138 L 34 138 L 34 146 L 25 146 L 25 155 L 34 155 L 34 156 L 34 180 L 43 180 L 43 163 L 62 163 L 73 155 L 81 155 L 81 146 L 76 146 L 77 140 L 77 138 L 81 138 L 81 129 L 73 129 Q 68 122 60 120 L 34 120 Z M 84 128 L 84 174 L 108 174 L 108 166 L 93 166 L 93 155 L 105 155 L 105 149 L 104 147 L 93 147 L 93 136 L 108 136 L 108 128 L 84 128 Z M 118 128 L 114 130 L 113 134 L 113 152 L 127 157 L 128 158 L 128 165 Q 127 167 122 166 L 121 158 Q 115 156 113 160 Q 111 168 114 172 L 118 174 L 132 174 L 134 173 L 136 171 L 137 167 L 137 153 L 136 150 L 124 146 L 121 146 L 121 139 Q 122 135 127 136 L 128 138 L 128 144 L 136 144 L 137 143 Q 138 135 135 131 L 132 128 L 118 128 Z M 147 128 L 145 129 L 141 135 L 141 169 L 146 174 L 161 174 L 163 173 L 165 169 L 165 134 L 164 132 L 161 128 L 147 128 Z M 170 128 L 173 163 L 174 164 L 174 172 L 175 173 L 176 174 L 183 174 L 186 166 L 188 153 L 190 151 L 195 173 L 196 174 L 204 174 L 207 140 L 209 130 L 208 128 L 200 128 L 198 153 L 193 130 Q 191 127 186 128 L 181 153 L 179 130 L 178 128 L 170 128 Z M 213 128 L 213 174 L 214 174 L 222 174 L 222 129 L 222 128 L 213 128 Z M 232 128 L 228 130 L 227 134 L 227 152 L 241 157 L 242 158 L 242 165 Q 241 167 236 166 L 235 158 Q 229 156 227 160 Q 225 168 228 172 L 232 174 L 246 174 L 248 173 L 250 171 L 251 167 L 251 153 L 250 150 L 238 146 L 235 146 L 235 139 Q 236 135 241 136 L 242 138 L 242 144 L 250 144 L 251 143 Q 252 135 249 131 L 246 128 L 232 128 Z M 255 128 L 255 174 L 279 174 L 279 166 L 264 166 L 264 155 L 276 155 L 276 149 L 275 147 L 264 147 L 264 136 L 279 136 L 279 128 L 255 128 Z " /><path fill="rgb(0,0,0)" stroke="rgb(0,0,0)" stroke-width="1" opacity="0" d="M 43 129 L 59.5 130 L 65 135.5 L 64.5 137 L 43 137 L 43 129 Z " /><path fill="rgb(0,0,0)" stroke="rgb(0,0,0)" stroke-width="1" opacity="0" d="M 150 136 Q 155.4 134.5 157 137.5 L 157 164.5 L 155.5 166 Q 150.1 166.6 150 165.5 L 150 136 Z " /><path fill="rgb(0,0,0)" stroke="rgb(0,0,0)" stroke-width="1" opacity="0" d="M 43 146 L 66 146.5 L 60.5 153 L 57.5 154 L 43 154 L 43 146 Z " /><path fill="rgb(234,234,234)" stroke="rgb(234,234,234)" stroke-width="1" opacity="0.6549019607843137" d="M 46.5 99 L 56 99.5 L 46.5 100 L 46.5 99 Z " /><path fill="rgb(234,234,234)" stroke="rgb(234,234,234)" stroke-width="1" opacity="0.6549019607843137" d="M 24.5 106 L 23.5 108 L 24.5 106 Z " /><path fill="rgb(234,234,234)" stroke="rgb(234,234,234)" stroke-width="1" opacity="0.6549019607843137" d="M 21.5 108 L 20.5 110 L 21.5 108 Z " /><path fill="rgb(234,234,234)" stroke="rgb(234,234,234)" stroke-width="1" opacity="0.6549019607843137" d="M 80.5 108 L 81.5 110 L 80.5 108 Z " /><path fill="rgb(234,234,234)" stroke="rgb(234,234,234)" stroke-width="1" opacity="0.6549019607843137" d="M 17.5 111 L 12.5 117 L 17.5 111 Z " /><path fill="rgb(234,234,234)" stroke="rgb(234,234,234)" stroke-width="1" opacity="0.6549019607843137" d="M 75.5 115 L 76.5 117 L 75.5 115 Z " /><path fill="rgb(234,234,234)" stroke="rgb(234,234,234)" stroke-width="1" opacity="0.6549019607843137" d="M 22.5 118 L 19.5 122 L 22.5 118 Z " /><path fill="rgb(234,234,234)" stroke="rgb(234,234,234)" stroke-width="1" opacity="0.6549019607843137" d="M 80.5 119 L 81.5 121 L 80.5 119 Z " /><path fill="rgb(234,234,234)" stroke="rgb(234,234,234)" stroke-width="1" opacity="0.6549019607843137" d="M 16.5 125 L 15.5 127 L 16.5 125 Z " /><path fill="rgb(234,234,234)" stroke="rgb(234,234,234)" stroke-width="1" opacity="0.6549019607843137" d="M 68.5 125 L 71.5 129 L 68.5 125 Z " /><path fill="rgb(234,234,234)" stroke="rgb(234,234,234)" stroke-width="1" opacity="0.6549019607843137" d="M 85.5 128 L 106.5 128 L 108 129.5 L 107.5 135 L 107 129 L 85.5 129 L 85.5 128 Z " /><path fill="rgb(234,234,234)" stroke="rgb(234,234,234)" stroke-width="1" opacity="0.6549019607843137" d="M 119.5 128 L 130 128.5 L 119.5 129 L 119.5 128 Z " /><path fill="rgb(234,234,234)" stroke="rgb(234,234,234)" stroke-width="1" opacity="0.6549019607843137" d="M 147.5 128 L 159 128.5 L 147.5 129 L 147.5 128 Z " /><path fill="rgb(234,234,234)" stroke="rgb(234,234,234)" stroke-width="1" opacity="0.6549019607843137" d="M 170 128 L 178 128.5 L 171 129 L 170.5 131 L 170 128 Z " /><path fill="rgb(234,234,234)" stroke="rgb(234,234,234)" stroke-width="1" opacity="0.6549019607843137" d="M 186.5 128 L 192 128.5 L 186.5 129 L 186.5 128 Z " /><path fill="rgb(234,234,234)" stroke="rgb(234,234,234)" stroke-width="1" opacity="0.6549019607843137" d="M 201.5 128 L 208 128.5 L 200.5 130 L 201.5 128 Z " /><path fill="rgb(234,234,234)" stroke="rgb(234,234,234)" stroke-width="1" opacity="0.6549019607843137" d="M 214.5 128 L 221 128.5 L 214.5 129 L 214.5 128 Z " /><path fill="rgb(234,234,234)" stroke="rgb(234,234,234)" stroke-width="1" opacity="0.6549019607843137" d="M 233.5 128 L 244 128.5 L 233.5 129 L 233.5 128 Z " /><path fill="rgb(234,234,234)" stroke="rgb(234,234,234)" stroke-width="1" opacity="0.6549019607843137" d="M 256.5 128 L 277.5 128 L 279 129.5 L 278.5 135 L 278 129 L 256.5 129 L 256.5 128 Z " /><path fill="rgb(234,234,234)" stroke="rgb(234,234,234)" stroke-width="1" opacity="0.6549019607843137" d="M 116.5 129 L 114.5 132 L 116.5 129 Z " /><path fill="rgb(234,234,234)" stroke="rgb(234,234,234)" stroke-width="1" opacity="0.6549019607843137" d="M 161.5 129 L 163.5 132 L 161.5 129 Z " /><path fill="rgb(234,234,234)" stroke="rgb(234,234,234)" stroke-width="1" opacity="0.6549019607843137" d="M 230.5 129 L 228.5 132 L 230.5 129 Z " /><path fill="rgb(234,234,234)" stroke="rgb(234,234,234)" stroke-width="1" opacity="0.6549019607843137" d="M 178.5 134 L 179 136.5 L 178 136.5 L 178.5 134 Z " /><path fill="rgb(234,234,234)" stroke="rgb(234,234,234)" stroke-width="1" opacity="0.6549019607843137" d="M 164.5 135 L 165 166.5 L 164 166.5 L 164.5 135 Z " /><path fill="rgb(234,234,234)" stroke="rgb(234,234,234)" stroke-width="1" opacity="0.6549019607843137" d="M 128.5 142 L 136 143.5 L 129.5 144 L 128.5 142 Z " /><path fill="rgb(234,234,234)" stroke="rgb(234,234,234)" stroke-width="1" opacity="0.6549019607843137" d="M 242.5 142 L 250 143.5 L 243.5 144 L 242.5 142 Z " /><path fill="rgb(234,234,234)" stroke="rgb(234,234,234)" stroke-width="1" opacity="0.6549019607843137" d="M 179.5 146 L 180 148.5 L 179 148.5 L 179.5 146 Z " /><path fill="rgb(234,234,234)" stroke="rgb(234,234,234)" stroke-width="1" opacity="0.6549019607843137" d="M 93.5 147 L 104 147.5 L 93.5 148 L 93.5 147 Z " /><path fill="rgb(234,234,234)" stroke="rgb(234,234,234)" stroke-width="1" opacity="0.6549019607843137" d="M 264.5 147 L 275 147.5 L 264.5 148 L 264.5 147 Z " /><path fill="rgb(234,234,234)" stroke="rgb(234,234,234)" stroke-width="1" opacity="0.6549019607843137" d="M 189.5 148 L 189 149.5 L 188.5 151 L 188 149.5 L 189.5 148 Z " /><path fill="rgb(234,234,234)" stroke="rgb(234,234,234)" stroke-width="1" opacity="0.6549019607843137" d="M 64.5 149 L 61.5 153 L 64.5 149 Z " /><path fill="rgb(234,234,234)" stroke="rgb(234,234,234)" stroke-width="1" opacity="0.6549019607843137" d="M 8.5 151 L 9 154.5 L 8 154.5 L 8.5 151 Z " /><path fill="rgb(234,234,234)" stroke="rgb(234,234,234)" stroke-width="1" opacity="0.6549019607843137" d="M 121.5 165 L 127 166.5 L 122.5 167 L 121.5 165 Z " /><path fill="rgb(234,234,234)" stroke="rgb(234,234,234)" stroke-width="1" opacity="0.6549019607843137" d="M 149.5 165 L 150.5 167 L 149.5 165 Z " /><path fill="rgb(234,234,234)" stroke="rgb(234,234,234)" stroke-width="1" opacity="0.6549019607843137" d="M 235.5 165 L 241 166.5 L 236.5 167 L 235.5 165 Z " /><path fill="rgb(234,234,234)" stroke="rgb(234,234,234)" stroke-width="1" opacity="0.6549019607843137" d="M 93.5 166 L 106.5 166 L 108 167.5 L 107.5 173 L 107 167 L 93.5 167 L 93.5 166 Z " /><path fill="rgb(234,234,234)" stroke="rgb(234,234,234)" stroke-width="1" opacity="0.6549019607843137" d="M 264.5 166 L 277.5 166 L 279 167.5 L 278.5 173 L 278 167 L 264.5 167 L 264.5 166 Z " /><path fill="rgb(234,234,234)" stroke="rgb(234,234,234)" stroke-width="1" opacity="0.6549019607843137" d="M 134.5 171 L 133.5 173 L 134.5 171 Z " /><path fill="rgb(234,234,234)" stroke="rgb(234,234,234)" stroke-width="1" opacity="0.6549019607843137" d="M 143.5 171 L 144.5 173 L 143.5 171 Z " /><path fill="rgb(234,234,234)" stroke="rgb(234,234,234)" stroke-width="1" opacity="0.6549019607843137" d="M 248.5 171 L 247.5 173 L 248.5 171 Z " /><path fill="rgb(234,234,234)" stroke="rgb(234,234,234)" stroke-width="1" opacity="0.6549019607843137" d="M 17.5 176 L 18.5 178 L 17.5 176 Z " /><path fill="rgb(234,234,234)" stroke="rgb(234,234,234)" stroke-width="1" opacity="0.6549019607843137" d="M 62.5 179 L 280 179.5 L 62.5 180 L 62.5 179 Z " /><path fill="rgb(234,234,234)" stroke="rgb(234,234,234)" stroke-width="1" opacity="0.6549019607843137" d="M 10.5 181 L 12.5 184 L 10.5 181 Z " /><path fill="rgb(234,234,234)" stroke="rgb(234,234,234)" stroke-width="1" opacity="0.6549019607843137" d="M 23.5 182 L 25.5 185 L 23.5 182 Z " /><path fill="rgb(234,234,234)" stroke="rgb(234,234,234)" stroke-width="1" opacity="0.6549019607843137" d="M 281.5 184 L 280.5 186 L 281.5 184 Z " /><path fill="rgb(234,234,234)" stroke="rgb(234,234,234)" stroke-width="1" opacity="0.6549019607843137" d="M 18.5 189 L 19.5 191 L 18.5 189 Z " /><path fill="rgb(234,234,234)" stroke="rgb(234,234,234)" stroke-width="1" opacity="0.6549019607843137" d="M 79.5 192 L 244 192.5 L 79.5 193 L 79.5 192 Z " /><path fill="rgb(255,255,255)" stroke="rgb(255,255,255)" stroke-width="1" opacity="0.996078431372549" d="M 47.5 107 L 56 107.5 L 47.5 108 L 47.5 107 Z " /><path fill="rgb(255,255,255)" stroke="rgb(255,255,255)" stroke-width="1" opacity="0.996078431372549" d="M 19.5 110 L 10.5 120 L 19.5 110 Z " /><path fill="rgb(255,255,255)" stroke="rgb(255,255,255)" stroke-width="1" opacity="0.996078431372549" d="M 28.5 113 L 27.5 115 L 28.5 113 Z " /><path fill="rgb(255,255,255)" stroke="rgb(255,255,255)" stroke-width="1" opacity="0.996078431372549" d="M 73.5 113 L 74.5 115 L 73.5 113 Z " /><path fill="rgb(255,255,255)" stroke="rgb(255,255,255)" stroke-width="1" opacity="0.996078431372549" d="M 25.5 115 L 23.5 118 L 25.5 115 Z " /><path fill="rgb(255,255,255)" stroke="rgb(255,255,255)" stroke-width="1" opacity="0.996078431372549" d="M 77.5 116 L 79.5 119 L 77.5 116 Z " /><path fill="rgb(255,255,255)" stroke="rgb(255,255,255)" stroke-width="1" opacity="0.996078431372549" d="M 9.5 121 L 8.5 123 L 9.5 121 Z " /><path fill="rgb(255,255,255)" stroke="rgb(255,255,255)" stroke-width="1" opacity="0.996078431372549" d="M 18.5 122 L 16.5 125 L 18.5 122 Z " /><path fill="rgb(255,255,255)" stroke="rgb(255,255,255)" stroke-width="1" opacity="0.996078431372549" d="M 66.5 124 L 67.5 126 L 66.5 124 Z " /><path fill="rgb(255,255,255)" stroke="rgb(255,255,255)" stroke-width="1" opacity="0.996078431372549" d="M 80.5 129 L 81 136.5 L 80 136.5 L 80.5 129 Z " /><path fill="rgb(255,255,255)" stroke="rgb(255,255,255)" stroke-width="1" opacity="0.996078431372549" d="M 145.5 129 L 147 129.5 L 143.5 132 L 145.5 129 Z " /><path fill="rgb(255,255,255)" stroke="rgb(255,255,255)" stroke-width="1" opacity="0.996078431372549" d="M 160.5 129 L 163.5 133 L 160.5 129 Z " /><path fill="rgb(255,255,255)" stroke="rgb(255,255,255)" stroke-width="1" opacity="0.996078431372549" d="M 61.5 130 L 64.5 134 L 61.5 130 Z " /><path fill="rgb(255,255,255)" stroke="rgb(255,255,255)" stroke-width="1" opacity="0.996078431372549" d="M 133.5 130 L 134.5 132 L 133.5 130 Z " /><path fill="rgb(255,255,255)" stroke="rgb(255,255,255)" stroke-width="1" opacity="0.996078431372549" d="M 200.5 130 L 201 133.5 L 200 133.5 L 200.5 130 Z " /><path fill="rgb(255,255,255)" stroke="rgb(255,255,255)" stroke-width="1" opacity="0.996078431372549" d="M 207.5 130 L 208 132.5 L 207 132.5 L 207.5 130 Z " /><path fill="rgb(255,255,255)" stroke="rgb(255,255,255)" stroke-width="1" opacity="0.996078431372549" d="M 247.5 130 L 248.5 132 L 247.5 130 Z " /><path fill="rgb(255,255,255)" stroke="rgb(255,255,255)" stroke-width="1" opacity="0.996078431372549" d="M 92.5 135 L 107 135.5 L 92.5 136 L 92.5 135 Z " /><path fill="rgb(255,255,255)" stroke="rgb(255,255,255)" stroke-width="1" opacity="0.996078431372549" d="M 113.5 135 L 114 150.5 L 115 151.5 L 113 150.5 L 113.5 135 Z " /><path fill="rgb(255,255,255)" stroke="rgb(255,255,255)" stroke-width="1" opacity="0.996078431372549" d="M 122.5 135 L 127 135.5 L 122.5 136 L 122.5 135 Z " /><path fill="rgb(255,255,255)" stroke="rgb(255,255,255)" stroke-width="1" opacity="0.996078431372549" d="M 150.5 135 Q 156.5 133.5 158 136.5 L 158 165.5 L 156.5 167 L 157 165.5 L 157 136.5 Q 156.8 135.3 150.5 136 L 149 136.5 L 150.5 135 Z " /><path fill="rgb(255,255,255)" stroke="rgb(255,255,255)" stroke-width="1" opacity="0.996078431372549" d="M 171.5 135 L 172 138.5 L 171 138.5 L 171.5 135 Z " /><path fill="rgb(255,255,255)" stroke="rgb(255,255,255)" stroke-width="1" opacity="0.996078431372549" d="M 227.5 135 L 228 150.5 L 229 151.5 L 227 150.5 L 227.5 135 Z " /><path fill="rgb(255,255,255)" stroke="rgb(255,255,255)" stroke-width="1" opacity="0.996078431372549" d="M 236.5 135 L 241 135.5 L 236.5 136 L 236.5 135 Z " /><path fill="rgb(255,255,255)" stroke="rgb(255,255,255)" stroke-width="1" opacity="0.996078431372549" d="M 263.5 135 L 278 135.5 L 263.5 136 L 263.5 135 Z " /><path fill="rgb(255,255,255)" stroke="rgb(255,255,255)" stroke-width="1" opacity="0.996078431372549" d="M 128.5 136 L 129 141.5 L 128 141.5 L 128.5 136 Z " /><path fill="rgb(255,255,255)" stroke="rgb(255,255,255)" stroke-width="1" opacity="0.996078431372549" d="M 242.5 136 L 243 141.5 L 242 141.5 L 242.5 136 Z " /><path fill="rgb(255,255,255)" stroke="rgb(255,255,255)" stroke-width="1" opacity="0.996078431372549" d="M 178.5 137 L 179 140.5 L 178 140.5 L 178.5 137 Z " /><path fill="rgb(255,255,255)" stroke="rgb(255,255,255)" stroke-width="1" opacity="0.996078431372549" d="M 120.5 138 L 122 146.5 L 120 145.5 L 120.5 138 Z " /><path fill="rgb(255,255,255)" stroke="rgb(255,255,255)" stroke-width="1" opacity="0.996078431372549" d="M 234.5 138 L 236 146.5 L 234 145.5 L 234.5 138 Z " /><path fill="rgb(255,255,255)" stroke="rgb(255,255,255)" stroke-width="1" opacity="0.996078431372549" d="M 206.5 139 L 207 141.5 L 206 141.5 L 206.5 139 Z " /><path fill="rgb(255,255,255)" stroke="rgb(255,255,255)" stroke-width="1" opacity="0.996078431372549" d="M 199.5 141 L 200 145.5 L 199 145.5 L 199.5 141 Z " /><path fill="rgb(255,255,255)" stroke="rgb(255,255,255)" stroke-width="1" opacity="0.996078431372549" d="M 0.5 144 L 1 146.5 L 0 146.5 L 0.5 144 Z " /><path fill="rgb(255,255,255)" stroke="rgb(255,255,255)" stroke-width="1" opacity="0.996078431372549" d="M 172.5 144 L 173 147.5 L 172 147.5 L 172.5 144 Z " /><path fill="rgb(255,255,255)" stroke="rgb(255,255,255)" stroke-width="1" opacity="0.996078431372549" d="M 80.5 146 L 81 153.5 L 80 153.5 L 80.5 146 Z " /><path fill="rgb(255,255,255)" stroke="rgb(255,255,255)" stroke-width="1" opacity="0.996078431372549" d="M 189.5 147 L 188.5 149 L 189.5 147 Z " /><path fill="rgb(255,255,255)" stroke="rgb(255,255,255)" stroke-width="1" opacity="0.996078431372549" d="M 205.5 148 L 206 150.5 L 205 150.5 L 205.5 148 Z " /><path fill="rgb(255,255,255)" stroke="rgb(255,255,255)" stroke-width="1" opacity="0.996078431372549" d="M 179.5 149 L 180 152.5 L 179 152.5 L 179.5 149 Z " /><path fill="rgb(255,255,255)" stroke="rgb(255,255,255)" stroke-width="1" opacity="0.996078431372549" d="M 0.5 151 L 1 155.5 L 0 155.5 L 0.5 151 Z " /><path fill="rgb(255,255,255)" stroke="rgb(255,255,255)" stroke-width="1" opacity="0.996078431372549" d="M 198.5 153 L 199 157 L 197 156.5 L 198.5 153 Z " /><path fill="rgb(255,255,255)" stroke="rgb(255,255,255)" stroke-width="1" opacity="0.996078431372549" d="M 71.5 154 L 67.5 159 L 71.5 154 Z " /><path fill="rgb(255,255,255)" stroke="rgb(255,255,255)" stroke-width="1" opacity="0.996078431372549" d="M 92.5 154 L 104 154.5 L 92.5 155 L 92.5 154 Z " /><path fill="rgb(255,255,255)" stroke="rgb(255,255,255)" stroke-width="1" opacity="0.996078431372549" d="M 173.5 154 L 174 156.5 L 173 156.5 L 173.5 154 Z " /><path fill="rgb(255,255,255)" stroke="rgb(255,255,255)" stroke-width="1" opacity="0.996078431372549" d="M 263.5 154 L 275 154.5 L 263.5 155 L 263.5 154 Z " /><path fill="rgb(255,255,255)" stroke="rgb(255,255,255)" stroke-width="1" opacity="0.996078431372549" d="M 128.5 156 L 129 165.5 L 127 166.5 L 128 165.5 L 128.5 156 Z " /><path fill="rgb(255,255,255)" stroke="rgb(255,255,255)" stroke-width="1" opacity="0.996078431372549" d="M 204.5 156 L 205 159.5 L 204 159.5 L 204.5 156 Z " /><path fill="rgb(255,255,255)" stroke="rgb(255,255,255)" stroke-width="1" opacity="0.996078431372549" d="M 242.5 156 L 243 165.5 L 241 166.5 L 242 165.5 L 242.5 156 Z " /><path fill="rgb(255,255,255)" stroke="rgb(255,255,255)" stroke-width="1" opacity="0.996078431372549" d="M 120.5 159 L 121 164.5 L 120 164.5 L 120.5 159 Z " /><path fill="rgb(255,255,255)" stroke="rgb(255,255,255)" stroke-width="1" opacity="0.996078431372549" d="M 234.5 159 L 235 164.5 L 234 164.5 L 234.5 159 Z " /><path fill="rgb(255,255,255)" stroke="rgb(255,255,255)" stroke-width="1" opacity="0.996078431372549" d="M 113.5 160 L 114 166.5 L 113 166.5 L 113.5 160 Z " /><path fill="rgb(255,255,255)" stroke="rgb(255,255,255)" stroke-width="1" opacity="0.996078431372549" d="M 227.5 160 L 228 166.5 L 227 166.5 L 227.5 160 Z " /><path fill="rgb(255,255,255)" stroke="rgb(255,255,255)" stroke-width="1" opacity="0.996078431372549" d="M 55.5 162 L 59 162.5 L 55.5 163 L 55.5 162 Z " /><path fill="rgb(255,255,255)" stroke="rgb(255,255,255)" stroke-width="1" opacity="0.996078431372549" d="M 174.5 163 L 175 165.5 L 174 165.5 L 174.5 163 Z " /><path fill="rgb(255,255,255)" stroke="rgb(255,255,255)" stroke-width="1" opacity="0.996078431372549" d="M 203.5 165 L 204 168.5 L 203 168.5 L 203.5 165 Z " /><path fill="rgb(255,255,255)" stroke="rgb(255,255,255)" stroke-width="1" opacity="0.996078431372549" d="M 135.5 166 L 136 168.5 L 135 168.5 L 135.5 166 Z " /><path fill="rgb(255,255,255)" stroke="rgb(255,255,255)" stroke-width="1" opacity="0.996078431372549" d="M 249.5 166 L 250 168.5 L 249 168.5 L 249.5 166 Z " /><path fill="rgb(255,255,255)" stroke="rgb(255,255,255)" stroke-width="1" opacity="0.996078431372549" d="M 134.5 170 L 132.5 173 L 134.5 170 Z " /><path fill="rgb(255,255,255)" stroke="rgb(255,255,255)" stroke-width="1" opacity="0.996078431372549" d="M 248.5 170 L 246.5 173 L 248.5 170 Z " /><path fill="rgb(255,255,255)" stroke="rgb(255,255,255)" stroke-width="1" opacity="0.996078431372549" d="M 13.5 171 L 14.5 173 L 13.5 171 Z " /><path fill="rgb(255,255,255)" stroke="rgb(255,255,255)" stroke-width="1" opacity="0.996078431372549" d="M 115.5 171 L 116.5 173 L 115.5 171 Z " /><path fill="rgb(255,255,255)" stroke="rgb(255,255,255)" stroke-width="1" opacity="0.996078431372549" d="M 229.5 171 L 230.5 173 L 229.5 171 Z " /><path fill="rgb(255,255,255)" stroke="rgb(255,255,255)" stroke-width="1" opacity="0.996078431372549" d="M 175.5 172 L 176.5 174 Q 173.7 174.7 175.5 172 Z " /><path fill="rgb(255,255,255)" stroke="rgb(255,255,255)" stroke-width="1" opacity="0.996078431372549" d="M 195.5 172 L 196.5 174 L 195.5 172 Z " /><path fill="rgb(255,255,255)" stroke="rgb(255,255,255)" stroke-width="1" opacity="0.996078431372549" d="M 119.5 173 L 122 173.5 L 119.5 174 L 119.5 173 Z " /><path fill="rgb(255,255,255)" stroke="rgb(255,255,255)" stroke-width="1" opacity="0.996078431372549" d="M 128.5 173 L 131 173.5 L 128.5 174 L 128.5 173 Z " /><path fill="rgb(255,255,255)" stroke="rgb(255,255,255)" stroke-width="1" opacity="0.996078431372549" d="M 147.5 173 L 150 173.5 L 147.5 174 L 147.5 173 Z " /><path fill="rgb(255,255,255)" stroke="rgb(255,255,255)" stroke-width="1" opacity="0.996078431372549" d="M 156.5 173 L 159 173.5 L 156.5 174 L 156.5 173 Z " /><path fill="rgb(255,255,255)" stroke="rgb(255,255,255)" stroke-width="1" opacity="0.996078431372549" d="M 233.5 173 L 236 173.5 L 233.5 174 L 233.5 173 Z " /><path fill="rgb(255,255,255)" stroke="rgb(255,255,255)" stroke-width="1" opacity="0.996078431372549" d="M 242.5 173 L 245 173.5 L 242.5 174 L 242.5 173 Z " /><path fill="rgb(255,255,255)" stroke="rgb(255,255,255)" stroke-width="1" opacity="0.996078431372549" d="M 15.5 174 L 16.5 176 L 15.5 174 Z " /><path fill="rgb(255,255,255)" stroke="rgb(255,255,255)" stroke-width="1" opacity="0.996078431372549" d="M 7.5 176 L 8.5 178 L 7.5 176 Z " /><path fill="rgb(255,255,255)" stroke="rgb(255,255,255)" stroke-width="1" opacity="0.996078431372549" d="M 18.5 178 L 22.5 183 L 18.5 178 Z " /><path fill="rgb(255,255,255)" stroke="rgb(255,255,255)" stroke-width="1" opacity="0.996078431372549" d="M 9.5 179 L 10.5 181 L 9.5 179 Z " /><path fill="rgb(255,255,255)" stroke="rgb(255,255,255)" stroke-width="1" opacity="0.996078431372549" d="M 53.5 180 L 56 180.5 L 53.5 181 L 53.5 180 Z " /><path fill="rgb(255,255,255)" stroke="rgb(255,255,255)" stroke-width="1" opacity="0.996078431372549" d="M 13.5 184 L 17.5 189 L 13.5 184 Z " /><path fill="rgb(255,255,255)" stroke="rgb(255,255,255)" stroke-width="1" opacity="0.996078431372549" d="M 20.5 190 L 21.5 192 L 20.5 190 Z " /><path fill="rgb(255,255,255)" stroke="rgb(255,255,255)" stroke-width="1" opacity="0.996078431372549" d="M 250.5 191 L 254 191.5 L 250.5 192 L 250.5 191 Z " /><path fill="rgb(255,255,255)" stroke="rgb(255,255,255)" stroke-width="1" opacity="0.996078431372549" d="M 46.5 192 L 56 192.5 L 46.5 193 L 46.5 192 Z " /><path fill="rgb(255,255,255)" stroke="rgb(255,255,255)" stroke-width="1" opacity="0.996078431372549" d="M 56.5 200 L 59 200.5 L 56.5 201 L 56.5 200 Z " /><path fill="rgb(255,255,255)" stroke="rgb(255,255,255)" stroke-width="1" opacity="1" d="M 43.5 100 L 58.5 100 L 63.5 101 Q 74.7 103.8 82 110.5 L 81.5 120 Q 71.2 106.8 47.5 107 L 37.5 109 L 28.5 113 L 16 124.5 L 9 138.5 L 8 156.5 Q 11.1 173.9 22.5 183 L 26.5 186 L 30.5 186 L 43.5 182 L 55.5 181 L 56.5 180 L 281 180 L 282 183.5 L 278.5 186 L 268.5 189 L 258.5 191 L 250.5 191 L 249.5 192 L 79.5 192 Q 68 201.5 46.5 201 L 33.5 198 L 23.5 193 L 11 181.5 L 2 163.5 L 0 147.5 L 2 136.5 L 6 126.5 L 21.5 109 Q 30.4 102.4 43.5 100 Z M 47 192 L 47 193 L 56 193 L 47 192 Z " /><path fill="rgb(255,255,255)" stroke="rgb(255,255,255)" stroke-width="1" opacity="1" d="M 34 121 L 58.5 121 L 70 127.5 L 70.5 129 L 80 129 L 80 137 L 75 137 L 75 138.5 L 76 143.5 L 75 146 L 80 146 L 80 154 L 71.5 154 Q 67.6 159.6 60.5 162 L 42 163 L 42 180 L 34 180 L 34 154.5 L 33.5 154 L 26 154 L 26 146 L 34 146 L 34 137 L 26 137 L 26 129 L 34 129 L 34 121 Z M 42 129 L 42 138 L 67 138 L 65 134 L 60 129 L 42 129 Z M 42 146 L 42 155 L 59 155 L 61 154 L 67 147 L 42 146 Z " /><path fill="rgb(255,255,255)" stroke="rgb(255,255,255)" stroke-width="1" opacity="1" d="M 85 129 L 106.5 129 L 107 129.5 L 107 135 L 92 135 L 92 148 L 104 148 L 104 154 L 92 154 L 92 167 L 107 167 L 107 172.5 L 105.5 174 L 86.5 174 L 85 172.5 L 85 129 Z " /><path fill="rgb(255,255,255)" stroke="rgb(255,255,255)" stroke-width="1" opacity="1" d="M 118.5 129 L 130.5 129 L 135 132.5 L 136 141.5 Q 134.4 144.5 129 143 L 129 136.5 L 127.5 136 L 122.5 135 Q 118.5 137.5 120 145.5 L 136 152.5 Q 138.4 167.4 131.5 173 L 122.5 174 L 117.5 173 L 115 170.5 L 114 168.5 L 114 159 L 120 159 L 120 164.5 L 121 167 Q 127.1 168.8 129 165.5 L 129 156.5 L 127.5 156 L 114 150.5 L 114 133.5 L 116.5 130 L 118.5 129 Z " /><path fill="rgb(255,255,255)" stroke="rgb(255,255,255)" stroke-width="1" opacity="1" d="M 147.5 129 L 159.5 129 L 164 133.5 L 164 168.5 L 161.5 172 L 155.5 174 L 150.5 174 L 144 172 L 142 167.5 L 142 134.5 L 145.5 130 L 147.5 129 Z M 151 135 L 149 137 L 149 167 L 150 167 L 157 167 L 158 166 L 158 137 Q 157 133 151 135 Z " /><path fill="rgb(255,255,255)" stroke="rgb(255,255,255)" stroke-width="1" opacity="1" d="M 171 129 Q 176.4 127.5 178 130.5 L 179 152.5 L 180.5 157 L 182 154.5 Q 183.3 140.1 187 129 L 192 129 L 192 133.5 L 197 157 L 199 156.5 L 199 146.5 L 200 145.5 L 200 134.5 L 201 129 L 208 129.5 L 207 130.5 L 203 172.5 L 201.5 174 Q 196 175 195 171.5 L 189.5 147 L 188 148.5 L 183 172.5 L 181.5 174 Q 176 175 175 171.5 L 175 163.5 L 174 162.5 L 171 129 Z " /><path fill="rgb(255,255,255)" stroke="rgb(255,255,255)" stroke-width="1" opacity="1" d="M 214 129 L 220.5 129 L 221 129.5 L 221 172.5 Q 220 175 215.5 174 L 214 172.5 L 214 129 Z " /><path fill="rgb(255,255,255)" stroke="rgb(255,255,255)" stroke-width="1" opacity="1" d="M 232.5 129 L 244.5 129 L 249 132.5 L 250 141.5 Q 248.4 144.5 243 143 L 243 136.5 L 241.5 136 L 236.5 135 Q 232.5 137.5 234 145.5 L 250 152.5 Q 252.4 167.4 245.5 173 L 236.5 174 L 231.5 173 L 229 170.5 L 228 168.5 L 228 159 L 234 159 L 234 164.5 L 235 167 L 241.5 167 L 243 165.5 L 243 156.5 L 241.5 156 L 228 150.5 L 228 133.5 L 230.5 130 L 232.5 129 Z " /><path fill="rgb(255,255,255)" stroke="rgb(255,255,255)" stroke-width="1" opacity="1" d="M 256 129 L 277.5 129 L 278 129.5 L 278 135 L 263 135 L 263 148 L 275 148 L 275 154 L 263 154 L 263 167 L 278 167 L 278 172.5 L 276.5 174 L 257.5 174 L 256 172.5 L 256 129 Z " /></svg>